<?xml version="1.0" standalone="no"?><!DOCTYPE svg PUBLIC "-//W3C//DTD SVG 1.1//EN" "http://www.w3.org/Graphics/SVG/1.1/DTD/svg11.dtd"><svg t="1774686897945" class="icon" viewBox="0 0 1024 1024" version="1.1" xmlns="http://www.w3.org/2000/svg" p-id="6810" xmlns:xlink="http://www.w3.org/1999/xlink" width="512" height="512"><path d="M189.15 831.38c-25.12-25.12-27.2-60.91-24.53-86.51 3.22-30.83 14.84-66.87 34.52-107.11 38.87-79.45 105.96-168.88 188.91-251.84C471 302.97 560.44 235.87 639.89 197.01c40.24-19.69 76.28-31.31 107.11-34.53 25.6-2.67 61.39-0.59 86.51 24.53l-38.89 38.89c-14.08-14.08-55.77-16.08-130.56 20.51-74.13 36.27-158.35 99.63-237.12 178.4-78.77 78.77-142.13 162.98-178.4 237.12-36.59 74.79-34.59 116.48-20.51 130.56l-38.89 38.89z" fill="#B4EA9F" p-id="6811"></path><path d="M536.65 537.51c-87.86 87.86-180.82 157.8-267.35 205.11 2.45 2.6 4.92 5.19 7.47 7.73 131.36 131.36 344.35 131.36 475.71 0 131.36-131.36 131.36-344.35 0-475.71-2.84-2.84-5.73-5.59-8.64-8.31-47.32 87.61-118.03 182.02-207.19 271.18z" fill="#33A464" p-id="6812"></path><path d="M269.32 742.6c86.53-47.3 179.49-117.24 267.35-205.11 89.16-89.16 159.86-183.56 207.19-271.18-131.9-122.98-338.55-120.22-467.07 8.31-128.82 128.82-131.3 336.12-7.47 467.98z" fill="#036B3C" p-id="6813"></path><path d="M649 402.99m-64 0a64 64 0 1 0 128 0 64 64 0 1 0-128 0Z" fill="#33A464" p-id="6814"></path><path d="M355 448.99m-101 0a101 101 0 1 0 202 0 101 101 0 1 0-202 0Z" fill="#33A464" p-id="6815"></path><path d="M259.04 856.8c-23.03 0-49.85-5.38-69.89-25.42l38.89-38.89c5.68 5.68 15.88 9.4 30.93 9.4 22.22 0 55.04-8.09 99.63-29.91 74.13-36.27 158.34-99.63 237.12-178.4 78.77-78.77 142.13-162.98 178.4-237.12 36.59-74.79 34.59-116.48 20.51-130.56l38.89-38.89c25.12 25.12 27.2 60.91 24.53 86.51-3.22 30.83-14.84 66.87-34.52 107.11-38.87 79.45-105.96 168.88-188.91 251.84-82.96 82.95-172.39 150.05-251.84 188.91-40.24 19.69-76.28 31.31-107.11 34.53-5.18 0.54-10.78 0.89-16.62 0.89z" fill="#B4EA9F" p-id="6816"></path></svg>